<svg xmlns="http://www.w3.org/2000/svg" viewBox="0 0 120 30">
  <path fill="#635BFF" d="M4.5 14.1c0-.8.7-1.1 1.8-1.1 1.6 0 3.6.5 5.2 1.3V9.7c-1.7-.7-3.4-.9-5.2-.9C2.4 8.7 0 10.7 0 14.2c0 5.5 7.5 4.6 7.5 7 0 .9-.8 1.2-1.9 1.2-1.7 0-3.8-.7-5.5-1.6v4.7c1.9.8 3.8 1.1 5.5 1.1 4 0 6.5-2 6.5-5.3-.1-5.9-7.6-4.8-7.6-7.2z"/>
  <path fill="#635BFF" d="M18.5 8.8l-4.2.9v4.1h2.5v7.5c0 2.9 2.2 4.3 5.1 4.3 1.6 0 2.7-.3 3.3-.5v-4c-.5.2-2.8.8-2.8-1.2V13.8h2.8V8.8h-2.8V4.3l-3.9.8v3.7zM31.2 8.8l-3.9.9v15.9h3.9V11.9c1-1.2 2.6-1 3.1-.8V8.8c-.5-.2-2.1-.5-3.1.8v-.8zM45.6 8.8l-1.5 7.1-1.6-7.1h-4.1l-1.6 7.1-1.5-7.1h-4.1l3.8 16.8h4.2l1.7-7.4 1.7 7.4h4.2l3.8-16.8zM55.5 8.4c-4.6 0-7.6 3.8-7.6 8.6 0 5.7 3.7 8.6 8.2 8.6 2.4 0 4.1-.5 5.4-1.2v-4c-1.3.8-2.8 1.3-4.7 1.3-1.9 0-3.6-.7-3.8-3h9.7c.1-.4.1-.9.1-1.4.1-4.8-2.9-8.9-7.3-8.9zm-2.5 7c0-1.8 1.1-2.9 2.5-2.9 1.4 0 2.3 1.1 2.3 2.9h-4.8zM68.8 16.7c0-2.9 2-3.7 3.8-3.7 1.7 0 3.1.4 4.4 1v-4.2c-1.4-.6-2.8-.9-4.4-.9-4.4 0-7.7 2.9-7.7 8 0 5 3.2 7.6 7.5 7.6 1.7 0 3.1-.3 4.6-.9v-4.2c-1.3.6-2.7 1-4.4 1-1.8-.1-3.8-.8-3.8-3.7zM97.5 8.8h-3.9v-.8c0-1.3 1.3-1.6 2.8-1.6.9 0 1.8.1 2.7.4V2.6c-1-.4-2.1-.5-3.1-.5-3.7 0-6.3 2.2-6.3 6.5v.3h-2.5v4.1h2.5v12.7h3.9V12.9h3.9V8.8zM106.1 8.4c-1.8 0-3 .9-3.7 1.4l-.2-1h-3.6v16.8h3.9V14c.9-1.1 2.1-1.6 3.3-1.6 2.4 0 3.2 1.6 3.2 3.8v9.4h3.9v-9.9c0-4.7-2.9-7.3-6.8-7.3z"/>
</svg> 